<svg xmlns="http://www.w3.org/2000/svg" viewBox="0 0 100 34" fill="none">
  <!-- k: vertical stem -->
  <rect x="3" y="2" width="9" height="30" rx="2.5" fill="#111827"/>
  <!-- k: upper diagonal arm (above swoosh) -->
  <polygon points="12,17 23,2 32,2 21,17" fill="#111827"/>
  <!-- k: lower diagonal arm (below swoosh) -->
  <polygon points="12,17 23,32 32,32 21,17" fill="#111827"/>
  <!-- t: vertical stem -->
  <rect x="52" y="2" width="9" height="30" rx="2.5" fill="#111827"/>
  <!-- t: left crossbar stub -->
  <rect x="42" y="13" width="10" height="8" fill="#111827"/>
  <!-- t: right crossbar stub -->
  <rect x="61" y="13" width="9" height="8" rx="2" fill="#111827"/>
  <!-- Red swoosh ribbon — the brand signature -->
  <path d="M8,22 C14,14 28,12 44,11 L61,10 C74,9 83,7 87,4 C88,3 88,4 87,7 C84,11 76,15 61,17 L44,18 C28,19 14,22 8,29 Z" fill="#e6001c"/>
</svg>
